<svg xmlns="http://www.w3.org/2000/svg" xmlns:xlink="http://www.w3.org/1999/xlink" version="1.1" id="svg2" x="0px" y="0px" viewBox="0 0 595.4 559.4" style="enable-background:new 0 0 595.4 559.4;" xml:space="preserve">
<style type="text/css">
	.st0{fill:#2E4233;fill-opacity:0.11;}
	.st1{fill:#2c4052;}
	.st2{fill:url(#path4539_1_);}
	.st3{fill:url(#path4541_1_);}
	.st4{fill:url(#path4642_1_);}
	.st5{fill:url(#path4644_1_);}
	.st6{fill:url(#path4588_1_);}
	.st7{fill:url(#ellipse4590_1_);}
	.st8{fill:url(#path4406_1_);}
	.st9{fill:url(#path4408_1_);}
	.st10{fill:url(#path4365-1-2_1_);}
	.st11{fill:url(#path4367-9-2_1_);}
	.st12{fill:url(#path4188_1_);}
	.st13{fill:#00B5D5;}
	.st14{fill:url(#path4398_1_);}
	.st15{fill:url(#path4369_1_);}
	.st16{fill:url(#path4365-1_1_);}
	.st17{fill:url(#path4367-9_1_);}
	.st18{fill:url(#path4636_1_);}
	.st19{fill:url(#path4638_1_);}
	.st20{opacity:6.000000e-02;}
	.st21{fill:url(#path4812_1_);}
	.st22{fill:url(#ellipse4814_1_);}
	.st23{fill:url(#path4828_1_);}
	.st24{fill:url(#circle4830_1_);}
	.st25{fill:url(#path4824_1_);}
	.st26{fill:#FFFFFF;}
	.st27{fill:url(#path4828-0_1_);}
	.st28{fill:#2E3436;}
	.st29{fill:url(#ellipse4650_1_);}
	.st30{fill:url(#ellipse4652_1_);}
	.st31{fill:url(#path4648_1_);}
	.st32{fill:url(#ellipse4523_1_);}
	.st33{fill:url(#path4521_1_);}
	.st34{fill:#42637f;}
	.st35{fill:#39566f;}
	.st36{fill:#42627f;}
	.st37{fill:#2f4354;}
	.st38{fill:#DDDDDD;}
	.st39{fill:none;stroke:#231F20;stroke-width:3;stroke-miterlimit:10;}
	.st40{fill:url(#SVGID_1_);stroke:#231F20;stroke-width:3;stroke-miterlimit:10;}
	.st41{opacity:0.8;fill:url(#SVGID_2_);stroke:#231F20;stroke-width:3;stroke-miterlimit:10;enable-background:new    ;}
	.st42{opacity:0.8;fill:url(#SVGID_3_);stroke:#231F20;stroke-width:3;stroke-miterlimit:10;enable-background:new    ;}
	.st43{opacity:0.8;fill:url(#SVGID_4_);stroke:#231F20;stroke-width:3;stroke-miterlimit:10;enable-background:new    ;}
	.st44{opacity:0.5;}
	.st45{fill:#FFFFFF;stroke:#231F20;stroke-width:3;stroke-miterlimit:10;}
	.st46{fill:none;stroke:#231F20;stroke-width:3;stroke-linecap:round;stroke-linejoin:round;}
	.st47{fill:url(#SVGID_5_);stroke:#231F20;stroke-width:3;stroke-miterlimit:10;}
	.st48{opacity:0.8;fill:url(#SVGID_6_);stroke:#231F20;stroke-width:3;stroke-miterlimit:10;enable-background:new    ;}
	.st49{opacity:0.8;fill:url(#SVGID_7_);stroke:#231F20;stroke-width:3;stroke-miterlimit:10;enable-background:new    ;}
	.st50{opacity:0.8;fill:url(#SVGID_8_);stroke:#231F20;stroke-width:3;stroke-miterlimit:10;enable-background:new    ;}
	.st51{fill:url(#SVGID_9_);stroke:#231F20;stroke-width:3;stroke-miterlimit:10;}
	.st52{opacity:0.8;fill:url(#SVGID_10_);stroke:#231F20;stroke-width:3;stroke-miterlimit:10;enable-background:new    ;}
	.st53{opacity:0.8;fill:url(#SVGID_11_);stroke:#231F20;stroke-width:3;stroke-miterlimit:10;enable-background:new    ;}
	.st54{opacity:0.8;fill:url(#SVGID_12_);stroke:#231F20;stroke-width:3;stroke-miterlimit:10;enable-background:new    ;}
</style>
<title>migopher-2</title>
<g id="layer6">
	<path id="path4349" class="st0" d="M217.3,493.1c-40.1-2.2-49.7,8.9-73.4,8.9s-37.8-5.2-60.8-1.5s-32.6,3-44.5,13.4   c-11.9,10.3-17.5,9.5-14.8,16.3c1.1,2.7,3.2,1.2,8.6,0.7c92.1-9.5,189.6,13.2,269.9,13.4c66.6,0.2,88.3-16.9,84.2-27.8   C372.9,480.4,321.4,497.5,217.3,493.1L217.3,493.1z"/>
</g>
<g id="layer1">
	<path id="path4321" class="st1" d="M195.6,365.5c-16.6,4.1-3.1,29.3-19,36.4c-14.6,6.5-23.9,21.8-38.6,30   c-19.4,10.9-37.8,14.4-56.8,28.6c-9.3,7-38.5,2.8-39.3,14.4c45-7,69,12.8,96.7,16.5c24.4,3.3,42.9,1.9,63.6-6   c71.8-27.5,41.7-89.4,41.4-108.2C229.5,374.5,209.3,362.1,195.6,365.5z"/>
</g>
<g id="layer5">
	<g id="g4537">
		
			<linearGradient id="path4539_1_" gradientUnits="userSpaceOnUse" x1="381.2791" y1="632.2777" x2="996.1591" y2="632.2777" gradientTransform="matrix(0.35 7.000000e-02 -0.16 0.47 108.8 44.43)">
			<stop offset="0" style="stop-color:#E1D6B9"/>
			<stop offset="1" style="stop-color:#8c8573"/>
		</linearGradient>
		<path id="path4539" class="st2" d="M401.1,414.8c-0.7,1.6-1,3.4-0.8,5.1c0.3,1.4,1,2.6,2,3.6c1.1,1.2,2.2,2.2,3.5,3.2    c1.3,1.1,2.7,2.2,4.1,3.2c1.3,1,2.8,1.8,4.3,2.5c1.3,0.6,2.6,1,4,1.2c1.1,0.2,2.2,0,3.3-0.5c1-0.6,1.8-1.6,2.1-2.8    c0.5-1.1,0.5-2.4,0.1-3.5c-0.5-1-1.3-1.9-2.2-2.5c-1-0.7-2.3-1.2-3.7-1.9c-1.4-0.7-2.8-1.6-4-2.6c-1.3-1.3-2.5-2.7-3.5-4.2    c-0.9-1.4-2-2.6-3.3-3.7c-0.8-0.8-2.1-1.1-3.2-0.8C402.8,411.6,400.3,416.8,401.1,414.8L401.1,414.8z"/>
		
			<linearGradient id="path4541_1_" gradientUnits="userSpaceOnUse" x1="-2164.2375" y1="1238.9147" x2="-2163.9875" y2="1238.9147" gradientTransform="matrix(-76.16 12.8 -28.38 -27.43 -129254.4531 62108.4727)">
			<stop offset="0" style="stop-color:#394655"/>
			<stop offset="1" style="stop-color:#000000"/>
		</linearGradient>
		<path id="path4541" class="st3" d="M407.1,410.8c1.2,0.9,2.3,1.9,3.3,3.1c1.2,1.6,2.6,3.1,4,4.5c1.4,1.2,2.9,2.3,4.6,3.1    c1.4,0.7,2.8,1.6,4.1,2.5c1.1,0.8,2,1.9,2.5,3.1c0.5,1.3,0.5,2.8,0,4.1c-0.4,1.3-1.2,2.5-2.4,3.2c-1.2,0.6-2.6,0.9-3.9,0.8    c-1.6-0.1-3.3-0.5-4.8-1.1c-1.8-0.7-3.5-1.6-5-2.8c-1.7-1.2-3.2-2.4-4.6-3.6c-1.3-1.1-2.5-2.2-3.6-3.5c-0.4-0.4-0.7-0.9-1-1.4    c-0.6-1,0.5-3.2,0.9-2.1c0.4,1,0.9,2,1.7,2.8c1,1.1,2.1,2.1,3.3,3.1c1.2,1,2.6,2.1,3.9,3.1c1.3,1,2.6,1.8,4.1,2.4    c1.2,0.6,2.5,1,3.8,1.2c1.1,0.2,2.2,0,3.1-0.4c1-0.6,1.7-1.5,2-2.6c0.4-1.1,0.5-2.3,0.1-3.4c-0.4-1-1.2-1.8-2.1-2.4    c-1.1-0.7-2.3-1.3-3.5-1.9c-1.4-0.7-2.7-1.5-3.9-2.5c-1.3-1.2-2.4-2.5-3.4-4c-0.9-1.3-1.9-2.5-3.1-3.6c-0.1-0.1-0.2-0.2-0.4-0.3    c-0.3-0.2-0.6-0.4-1-0.5c-0.4-0.1-0.1-1.8,0.8-1.2C406.8,410.6,407,411,407.1,410.8L407.1,410.8z"/>
	</g>
	<g id="g4640">
		
			<linearGradient id="path4642_1_" gradientUnits="userSpaceOnUse" x1="-2166.2185" y1="1251.5023" x2="-2165.9585" y2="1251.5023" gradientTransform="matrix(270.43 253.73 -44.53 34.01 641834.1875 507522.0938)">
			<stop offset="0" style="stop-color:#394655"/>
			<stop offset="1" style="stop-color:#000000"/>
		</linearGradient>
		<path id="path4642" class="st4" d="M340.8,490c3.3,6.3,2.1,13.6,2.7,19s3.1,8.9,5,11.6s3.6,4.5,5.4,5.1s3.5,0,5.4-2.2    c1.8-2,2.8-4.6,2.6-7.3c0-2.8-0.9-5.9-2-9.6c-1.2-4.5-2.8-8.9-4.9-13c-3.1-5.9-7-11.4-11.8-16.1c-5.7-5.6-12.8-10-19-13.6    s-11.6-6.4-15.8-8.5c-3.1-1.6-6.3-2.9-9.6-3.9c-2.3-0.6-3.7-0.4-4.2,0.5s0.2,2.4,2.3,4.3c3.2,2.8,6.6,5.3,10.3,7.5    c4.8,3,11.1,6.5,17.5,10.7S337.5,483.7,340.8,490L340.8,490z"/>
		
			<linearGradient id="path4644_1_" gradientUnits="userSpaceOnUse" x1="813.8623" y1="236.9896" x2="1428.7422" y2="236.9896" gradientTransform="matrix(0.16 0.29 -0.64 0.39 305.19 67.85)">
			<stop offset="0" style="stop-color:#E1D6B9"/>
			<stop offset="1" style="stop-color:#000000"/>
		</linearGradient>
		<path id="path4644" class="st5" d="M342,488.2c3.3,5.2,3.5,11.2,3.5,16.5c-0.1,4.2,1,8.3,3,12c1.7,2.8,3.3,4.7,4.9,5.6    s3,0.6,4.6-1.1c1.5-1.8,2.2-4.1,1.7-6.4c-0.6-3.1-1.4-6.1-2.4-9c-1.1-4.3-2.6-8.4-4.5-12.4c-2.7-5.3-6.1-10.1-10.3-14.3    c-4.7-4.6-10-8.5-15.7-11.8c-5.2-3.1-9.9-5.6-13.6-7.5c-2.7-1.5-5.6-2.7-8.5-3.8c-2-0.7-3.1-0.7-3.4-0.1s0.6,1.8,2.6,3.4    c3.1,2.3,6.2,4.4,9.5,6.3c4.3,2.6,9.6,5.6,14.9,9.3S338.7,483,342,488.2z"/>
	</g>
	<g id="g4594">
		
			<linearGradient id="path4588_1_" gradientUnits="userSpaceOnUse" x1="-2167.2368" y1="1240.2579" x2="-2166.9768" y2="1240.2579" gradientTransform="matrix(-363.08 -18.54 3.46 -39.55 -790913 9288.6201)">
			<stop offset="0" style="stop-color:#394655"/>
			<stop offset="1" style="stop-color:#000000"/>
		</linearGradient>
		<path id="path4588" class="st6" d="M212.5,417.1c-6.8-2-11.4-6.7-15.9-9.4c-3.6-2.2-7.7-3.6-11.9-4.2c-3.3-0.6-5.7-0.9-7.2-0.4    s-2.2,1.6-1.9,3.7s1.6,3.8,3.7,5.3c2.7,1.8,5.5,3.3,8.4,4.5c4.1,2,8.4,3.7,12.8,5c6.4,1.9,12.9,3.2,19.6,3.6    c7.5,0.3,15,0,22.4-1.1c6.7-0.8,12.2-1.7,16.5-2.5c3.1-0.5,6.1-1.2,9.1-2.2c1.9-0.7,2.7-1.5,2.4-2.2s-1.9-1.2-4.7-1.4    c-4.1-0.1-8.1,0-12.2,0.5c-5.3,0.5-12,1.5-19.2,2S219.3,419,212.5,417.1L212.5,417.1z"/>
		
			<linearGradient id="ellipse4590_1_" gradientUnits="userSpaceOnUse" x1="-508.4512" y1="206.1905" x2="-407.7512" y2="206.1905" gradientTransform="matrix(0.11 -0.24 0.71 8.000000e-02 44.31 461.41)">
			<stop offset="0" style="stop-color:#E1D6B9"/>
			<stop offset="1" style="stop-color:#000000"/>
		</linearGradient>
		<path id="ellipse4590" class="st7" d="M213,418.6c-6-1.4-10.6-4.7-14.5-7.6c-3.2-2.5-6.9-4.3-10.9-5.4c-2.4-0.7-4.8-1-7.3-0.9    c-1.6,0.2-2.4,1-2.1,2.7s1.6,3.1,3.6,4.4c2.7,1.5,5.4,2.8,8.2,4c3.9,1.9,7.9,3.5,12,4.9c5.6,1.7,11.4,2.8,17.3,3.3    c6.3,0.4,12.7,0.2,18.9-0.6c5.7-0.6,10.6-1.4,14.4-2c2.8-0.4,5.6-1,8.3-1.8c1.8-0.5,2.5-1,2.3-1.5s-1.7-0.7-4.2-0.7    s-6.2,0.3-10.8,0.8s-10.4,1.2-16.5,1.6C225.4,420.3,219.1,419.9,213,418.6z"/>
	</g>
	<g id="g4404">
		
			<linearGradient id="path4406_1_" gradientUnits="userSpaceOnUse" x1="-74.2309" y1="1462.4" x2="-73.2309" y2="1462.4" gradientTransform="matrix(-13.85 -34.52 -45.19 15.95 87171.1016 28536.582)">
			<stop offset="0" style="stop-color:#96D6FF"/>
			<stop offset="1" style="stop-color:#000000"/>
		</linearGradient>
		<path id="path4406" class="st8" d="M331.6,196.6c1.3,2.8,3.4,5.1,6.1,6.6c2.6,1.5,5.6,2.6,8.6,3.1c2.9,0.5,5.8,0.4,8.7-0.3    c3.1-0.7,6.1-2,8.6-3.9c2-1.8,3.3-4.3,3.8-6.9c0.5-2.8,1.3-5.6,2.5-8.2c1.6-3.2,3-6.4,2.9-8.8c-0.1-2.2-0.7-4.4-1.7-6.4    c-1-1.8-2.4-3.2-4.1-4.2c-1.8-1-3.8-1.6-5.8-1.7c-2.4-0.2-4.8,0-7.1,0.5c-5.6,1.3-10.8,3.9-15.2,7.6c-2.1,1.8-4,3.9-5.5,6.3    c-1.4,2.3-2.3,4.8-2.5,7.4C330.5,190.2,330.4,193.9,331.6,196.6z"/>
		
			<linearGradient id="path4408_1_" gradientUnits="userSpaceOnUse" x1="-2165.1357" y1="1247.2286" x2="-2164.8958" y2="1247.2286" gradientTransform="matrix(-2.37 177.89 -68.44 25.34 80580.7031 353719.7188)">
			<stop offset="0" style="stop-color:#394655"/>
			<stop offset="1" style="stop-color:#000000"/>
		</linearGradient>
		<path id="path4408" class="st9" d="M347.3,166.7c2.1-0.8,4.2-1.5,6.4-1.9c2.6-0.6,5.2-0.7,7.8-0.6c2.3,0.1,4.5,0.8,6.5,1.9    c1.9,1.1,3.5,2.6,4.6,4.6c1.2,2.1,1.9,4.5,2,6.9c0.2,2.6-0.8,5.8-2.6,9.3c-1.4,2.8-2.3,5.8-2.8,8.9c-0.5,2.5-2.2,4.9-5.3,6.8    c-0.4,0.2-1.1-0.7-0.9-1c2.4-2.1,3-4.7,3.8-6.8c0.5-2.8,1.3-5.5,2.5-8c1.5-3.1,2.9-6.3,2.8-8.6c-0.1-2.2-0.6-4.3-1.6-6.2    c-0.9-1.7-2.3-3.1-4-4.1c-1.8-1-3.7-1.5-5.7-1.7c-2.3-0.2-4.7,0-6.9,0.5c-1.3,0.3-2.5,0.6-3.8,1.1c-1.3,0.5-2.6,1-3.9,1.6    c-2.6,1.2-5,2.8-7.2,4.7c-2.1,1.8-3.9,3.8-5.3,6.2c-1.4,2.2-2.2,4.7-2.5,7.2c-0.2,2.5-0.3,6.1,0.8,8.8c1,2.2,2.6,4.1,4.6,5.5    c0.4,0.3-1.1,1.9-2.3,1.2c-2.1-1.4-3.7-3.4-4.5-5.7c-1.1-3.1-1.5-6.4-1.2-9.7c0.3-2.9,1.2-5.7,2.7-8.1c1.6-2.6,3.6-4.9,5.9-6.8    c2.4-2,5.1-3.7,8-5.1C345.9,167.2,346.6,166.9,347.3,166.7L347.3,166.7z"/>
		
			<linearGradient id="path4365-1-2_1_" gradientUnits="userSpaceOnUse" x1="-2152.6284" y1="1233.1283" x2="-2152.3684" y2="1233.1283" gradientTransform="matrix(-16.43 30.62 -19.33 8.87 -11172.9297 55165.9219)">
			<stop offset="0" style="stop-color:#394655"/>
			<stop offset="1" style="stop-color:#000000"/>
		</linearGradient>
		<path id="path4365-1-2" class="st10" d="M366.8,181.4c-0.4-0.6-1.4-0.8-2.9-0.4c-2.3,0.6-5,3.2-6.4,5.2c-0.9,1-1.6,2.2-2.2,3.4    c-0.2,0.5-0.3,1-0.2,1.5c0.5-0.1,0.9-0.8,1.2-1.3c1.1-2.1,2.6-3.9,4.5-5.2c1.6-1.1,1.8-1.9,3.5-2.6    C365.2,181.4,365.9,181.7,366.8,181.4L366.8,181.4z"/>
		
			<linearGradient id="path4367-9-2_1_" gradientUnits="userSpaceOnUse" x1="-2155.9199" y1="1250.423" x2="-2155.72" y2="1250.423" gradientTransform="matrix(7.37 26.93 -6.72 1.66 24653.1895 56169.3203)">
			<stop offset="0" style="stop-color:#394655"/>
			<stop offset="1" style="stop-color:#000000"/>
		</linearGradient>
		<path id="path4367-9-2" class="st11" d="M357.7,185.7c-0.5-0.5,0.4,1,1,1.2c2.1,0.7,4.1,1.6,6.2,2.4c0.7,0.3,0.9-0.4,0.3-0.8    c-0.6-0.4-1.2-0.6-1.8-0.9c-0.6-0.2-1.2-0.3-1.8-0.6c-1.1-0.5-1.7-1.2-2.8-1.7C358.5,185.2,358,186,357.7,185.7L357.7,185.7z"/>
	</g>
	<g id="g4198">
		
			<linearGradient id="path4188_1_" gradientUnits="userSpaceOnUse" x1="-2166.7598" y1="1248.0046" x2="-2166.5198" y2="1248.0046" gradientTransform="matrix(526.35 1331.91 353.25 -81.45 699853.0625 2987773.25)">
			<stop offset="0" style="stop-color:#394655"/>
			<stop offset="1" style="stop-color:#000000"/>
		</linearGradient>
		<path id="path4188" class="st12" d="M423.5,379.9c-5.1,42.3-14.2,83.4-46.3,111.5c-40.5,35.4-114.9,40.1-167.6,6.5    c-15.2-9.7-27.4-36.7-29.3-54.2c-4.1-36.5,11-61.2,7.4-94.9c-2.8-26.8-16.4-49-15.1-80.9c0.9-21.4,6.1-46.3,22.4-59.6    c21.3-17.4,46.2-27.3,74.4-26.6c40.2,1,83.5,3.7,117.2,29.5c24,18.4,37.8,48.7,40.3,79.9C429.3,323.2,426.7,352.9,423.5,379.9    L423.5,379.9z"/>
		<path id="ellipse4190" class="st13" d="M413.4,419c-8.6,38.9-32.3,75.2-74.2,89.6c-39,13.4-90.3,10.2-128.2-15.1    c-14.4-9.6-25.4-36.3-27-52.8c-3.3-34.8,10.5-60.3,7.4-92.5c-2.6-26.8-15.5-46.3-15.1-78.1c0.3-20.8,5-45.4,20.9-58.3    c20.2-16.3,43.3-26.7,69.8-26.6c42.1,0.2,89.5,3.3,123.1,33.4c30.6,27.6,35,76.2,33.6,114.2C422.4,364.1,419.4,392.2,413.4,419    L413.4,419z"/>
	</g>
	<g id="g4376">
		
			<linearGradient id="path4398_1_" gradientUnits="userSpaceOnUse" x1="-71.5695" y1="1459.4509" x2="-70.5695" y2="1459.4509" gradientTransform="matrix(-26.31 -45.92 47.17 -26.49 -29209.8594 107724.0391)">
			<stop offset="0" style="stop-color:#96D6FF"/>
			<stop offset="1" style="stop-color:#000000"/>
		</linearGradient>
		<path id="path4398" class="st14" d="M206.9,200.6c1.8,3.3,2.6,7,2.3,10.7c-0.3,3.4-1.3,6.8-3,9.8c-1.5,2.8-3.7,5.3-6.4,7.1    c-2.7,1.8-6.2,3.7-10,4.1s-6.9-1.2-9.6-2.9c-3.2-2.2-6.6-4.1-10.2-5.6c-4.4-1.7-8.7-3.4-11.1-5.9c-2.3-2.3-4.2-5-5.6-8    c-1.2-2.6-1.8-5.4-1.7-8.2c0.1-2.6,0.8-5.1,2-7.3c1.3-2.4,3.1-4.4,5.4-6c2.5-1.8,5.4-3.1,8.4-3.8c3.4-0.8,6.9-1.1,10.4-0.8    c3.7,0.3,7.3,1.1,10.8,2.4c3.5,1.3,6.8,3.1,9.7,5.4C201.1,193.8,204.9,197.2,206.9,200.6L206.9,200.6z"/>
		
			<linearGradient id="path4369_1_" gradientUnits="userSpaceOnUse" x1="-2165.7129" y1="1245.7739" x2="-2165.4729" y2="1245.7739" gradientTransform="matrix(184.98 166.71 72.65 -38.87 310262.0625 409651.8438)">
			<stop offset="0" style="stop-color:#394655"/>
			<stop offset="1" style="stop-color:#000000"/>
		</linearGradient>
		<path id="path4369" class="st15" d="M164.1,183.6c-2.3,0.9-4.5,2-6.5,3.5c-2.4,1.8-4.4,4-5.8,6.6c-1.4,2.5-2.2,5.3-2.3,8.1    c-0.1,3.1,0.5,6.2,1.8,9c1.4,3.2,3.4,6.2,5.9,8.7c2.6,2.7,6.6,4.8,11.4,6.5s8.1,4,11.1,5.8c3.2,1.9,7,2.4,10.5,1.3    c0.5-0.1,0.1-1.6-0.4-1.6c-3.8,0.2-6.8-1.5-9.5-2.8c-3.1-2.2-6.5-4-10-5.5c-4.3-1.6-8.5-3.3-10.8-5.7c-2.3-2.2-4.1-4.9-5.5-7.8    c-1.2-2.5-1.8-5.2-1.7-8c0.1-2.5,0.8-5,2-7.2c1.3-2.3,3.1-4.3,5.2-5.8c1.2-0.8,2.4-1.6,3.8-2.2c1.5-0.7,3-1.2,4.5-1.6    c3.3-0.8,6.8-1.1,10.2-0.8c3.6,0.3,7.1,1.1,10.5,2.3c3.4,1.3,6.6,3.1,9.4,5.3c2.8,2.3,6.5,5.5,8.4,8.8c1.5,2.6,2.3,5.6,2.3,8.6    c0,0.5,2.7,0.6,2.8-1c0.1-3-0.8-6-2.4-8.6c-2.1-3.6-5.9-7.3-9-9.8c-3.1-2.5-6.7-4.5-10.5-5.9c-3.7-1.4-7.6-2.2-11.6-2.5    c-3.8-0.3-7.6,0.1-11.3,1.1C165.8,182.9,164.9,183.2,164.1,183.6L164.1,183.6z"/>
		
			<linearGradient id="path4365-1_1_" gradientUnits="userSpaceOnUse" x1="-2162.6304" y1="1240.0966" x2="-2162.3606" y2="1240.0966" gradientTransform="matrix(55.4 47.97 22.2 -11.67 92458.625 118419.9297)">
			<stop offset="0" style="stop-color:#394655"/>
			<stop offset="1" style="stop-color:#000000"/>
		</linearGradient>
		<path id="path4365-1" class="st16" d="M171.6,206c0.3-1.1,1.6-1.9,4.1-2c3.7-0.2,8.8,2.4,11.9,4.6c1.8,1.1,3.4,2.4,4.8,4    c0.5,0.6,0.9,1.3,1,2.1c-0.8,0.1-1.8-0.7-2.4-1.3c-2.5-2.6-5.7-4.5-9.1-5.6c-2.9-0.9-3.6-2-6.4-2.2C173.8,205.3,173,206,171.6,206    z"/>
		
			<linearGradient id="path4367-9_1_" gradientUnits="userSpaceOnUse" x1="-2155.3447" y1="1228.601" x2="-2155.1448" y2="1228.601" gradientTransform="matrix(31.92 14.38 15.76 -6.93 49618.3867 39720.6914)">
			<stop offset="0" style="stop-color:#394655"/>
			<stop offset="1" style="stop-color:#000000"/>
		</linearGradient>
		<path id="path4367-9" class="st17" d="M187,208.1c0.4-0.9-0.1,1.7-0.9,2.2c-2.8,2-5.3,4.4-8,6.6c-0.9,0.7-1.5-0.2-0.8-1    c0.7-0.8,1.4-1.5,2.3-2.1c0.8-0.6,1.7-1,2.4-1.7c1.4-1.3,2-2.5,3.3-3.9c0.4-0.5,1.5,0.4,1.8,0L187,208.1z"/>
	</g>
	<g id="g4634">
		
			<linearGradient id="path4636_1_" gradientUnits="userSpaceOnUse" x1="-934.9075" y1="337.6155" x2="-320.0175" y2="337.6155" gradientTransform="matrix(-0.1 -0.34 0.49 -9.000000e-02 92.32 577.95)">
			<stop offset="0" style="stop-color:#E1D6B9"/>
			<stop offset="1" style="stop-color:#000000"/>
		</linearGradient>
		<path id="path4636" class="st18" d="M254.1,505.1c-1.7-0.4-3.5-0.3-5.1,0.3c-1.3,0.6-2.4,1.5-3.1,2.7c-0.9,1.4-1.6,2.8-2.3,4.3    c-0.7,1.6-1.4,3.3-2.1,5c-0.7,1.6-1.2,3.2-1.6,4.9c-0.3,1.4-0.5,2.8-0.4,4.3c0,2.6,1.9,4.7,4.4,5c1.3,0.3,2.6,0.2,3.8-0.4    c1-0.6,1.8-1.5,2.2-2.5c0.6-1.3,1-2.6,1.3-4c0.4-1.7,0.9-3.3,1.6-4.9c0.8-1.7,1.7-3.4,2.8-5c1-1.4,1.8-2.9,2.5-4.4    c0.6-1.1,0.6-2.3,0-3.4C257.5,506.2,256.2,505.5,254.1,505.1z"/>
		
			<linearGradient id="path4638_1_" gradientUnits="userSpaceOnUse" x1="-2169.4724" y1="1244.7262" x2="-2169.2524" y2="1244.7262" gradientTransform="matrix(-47.56 -68.45 15.56 -37.29 -122298.7109 -101564.2266)">
			<stop offset="0" style="stop-color:#394655"/>
			<stop offset="1" style="stop-color:#000000"/>
		</linearGradient>
		<path id="path4638" class="st19" d="M259.3,510.3c-0.5,1.5-1.2,2.9-2,4.2c-1.1,1.8-2,3.7-2.9,5.6c-0.8,2-1.4,3.9-1.9,5.6    c-0.4,1.6-1.1,3.1-1.8,4.5c-1.4,2.7-4.4,4.1-7.3,3.4c-1.5-0.2-2.8-0.9-3.8-2c-0.9-1.1-1.4-2.4-1.5-3.8c-0.2-1.7-0.1-3.4,0.2-5    c0.3-2,0.9-3.9,1.6-5.7c0.8-2,1.6-3.8,2.4-5.6c0.7-1.6,1.6-3.1,2.6-4.5c0.4-0.5,0.7-0.9,1.2-1.3c0.8-0.8,3.2-0.2,2.2,0.4    c-0.8,0.6-1.5,1.3-1.9,2.2c-0.8,1.3-1.4,2.7-2,4.2c-0.6,1.5-1.8,2.8-2.4,4.4c-0.6,1.4-1.1,2.9-1.4,4.4c-0.3,1.3-0.4,2.7-0.4,4    c0,1.1,0.4,2.1,1,3c0.8,0.9,1.8,1.5,3,1.6c1.1,0.3,2.3,0.2,3.2-0.4c0.8-0.5,0.9-1.9,1.3-2.9c0.5-1.2,1-2.4,1.3-3.7    c0.4-1.3,1-2.5,1.8-3.7c1-1.6,2.1-3,3.3-4.4c1.1-1.3,1.9-2.7,2.6-4.2c0.1-0.2,0.1-0.3,0.2-0.5c0.1-0.4,0.2-0.7,0.2-1.1    c0-0.4,1.6-0.5,1.3,0.5c0,0.2-0.1,0.4-0.1,0.5L259.3,510.3z"/>
	</g>
</g>
<g id="layer9" class="st20">
	<ellipse id="path4544" cx="361.4" cy="322.9" rx="18" ry="16.5"/>
	<path id="path4271" d="M175.1,184.8c-5.3-0.1-8.6,0.7-12.5,2.6s-8,6.3-9.2,10c-1.8,5.5-0.3,11.9,4,17.6c2.6,3.3,5.5,5.2,11.7,7.7   c2.8,1.1,5.4,2.4,8,3.9c4.5,2.8,7.9,4.3,10.8,4.6c1.9,0.2,2.5,0.5,2.5,1.2s-0.6,1-2.3,1.3c-1.3,0.2-2.6,0.2-3.9,0   c-1.6-0.3-1.6-0.3-2.9,3.8c-3.1,9.4-4.7,20.7-4.6,33.7c0,14.6,1.5,23.1,7.7,44.8c4.4,15.6,5.7,21.1,6.9,29.8   c1.6,12.5,1.1,21.3-3.1,46.2c-3.9,23.2-4.1,25.4-4.1,37.2c0,11.4,0.5,15.9,2.8,23.9c4.4,15,11,27.3,19.1,35.4   c6.4,6.4,18.1,13,33,18.6c4.4,1.6,4.7,1.7,5.2,0.8c1.4-2.5,2.6-3,7.5-3c-31-27-27.6-65.8-20.4-87.1c5.9-17.5,25.4-42.6,25.4-42.6   l-17.9-1.6c0,0-5.8-34.1-10.5-47.9c-18.1-52.9-23.9-96.3,3.5-126.6c4.4-4.9,9.8-8.9,15.7-11.8c-7.3,1.5-14.4,3.7-21.2,6.6   c-5.3,2.3-15.2,7.9-15.2,8.6c0.1,0.9,0.3,1.9,0.5,2.8c0.6,2.8-0.1,4.4-1.8,4.2c-0.9-0.1-1.2-0.6-1.5-2.8c-0.5-4.1-2.6-7.5-7.2-11.9   c-7.4-7-13.8-9.8-23.4-10.2C176.6,184.8,175.8,184.7,175.1,184.8L175.1,184.8z M176.2,204c1.6,0.1,3.2,0.3,4.7,0.8   c3.2,1.1,9.9,5.4,11.4,7.4c2.4,3,0.8,3.2-2.7,0.3c-0.9-0.8-1.9-1.5-2.9-2.1c-1.6,1-3.1,2.2-4.5,3.4c-2.3,1.9-4.5,3.4-4.8,3.4   c-1.5,0-0.4-1.7,2.5-3.9c3.7-2.9,4.7-4.3,3.3-4.8c-0.5-0.2-2.3-0.9-4-1.6c-2.4-1-3.6-1.2-5.4-0.9c-2.5,0.4-3.1-0.3-1.2-1.3   C173.8,204.1,175,203.9,176.2,204z M259.2,511L259.2,511l-0.6,1.8l4.5,0.8h0.2C261.9,512.7,260.6,511.8,259.2,511L259.2,511z"/>
	<path id="path4275" d="M250.1,375.4l-3.6,11.9c2.1,0,7.9-5.1,13.4-5.5c61.6-3.5,100-0.3,149.8-4.3c1.4-0.1,2.8-0.1,4.2,0.2   c4.2,0.9,6.5,11.5,7.5,10.9c0.5-11.3-1.9-15.3-4.6-18.1L250.1,375.4z"/>
</g>
<g id="layer2">
	<g id="g4818">
		
			<linearGradient id="path4812_1_" gradientUnits="userSpaceOnUse" x1="-2166.3936" y1="1246.9175" x2="-2166.1633" y2="1246.9175" gradientTransform="matrix(-246.7 460.24 -165.57 -28.14 -327684.1875 1032371.0625)">
			<stop offset="0" style="stop-color:#394655"/>
			<stop offset="1" style="stop-color:#000000"/>
		</linearGradient>
		<path id="path4812" class="st21" d="M224.6,272.1c0.3,7.7,2.1,15.2,5.4,22.2c3.4,7,8,13.4,13.6,18.9c5.7,5.6,12.3,10.2,19.5,13.7    c7.3,3.5,15.2,5.6,23.4,6.2c7.8,0.6,15.7-0.5,23-3.2c7-2.6,13.3-6.7,18.5-12c5.3-5.4,9.5-11.8,12.2-18.9c2.9-7.5,4.3-15.6,4-23.6    c-0.2-8.2-2-16.2-5.3-23.7c-3.2-7.1-7.6-13.6-13.2-19c-5.5-5.4-12-9.6-19.1-12.4c-7.4-2.9-15.3-4.3-23.2-4.2    c-7.9,0.1-15.8,1.7-23.1,4.7c-7,2.8-13.4,6.9-18.9,12c-5.3,5-9.6,10.9-12.5,17.6C225.8,257.2,224.4,264.6,224.6,272.1L224.6,272.1    z"/>
		
			<linearGradient id="ellipse4814_1_" gradientUnits="userSpaceOnUse" x1="-66.5822" y1="-869.816" x2="-65.582" y2="-869.816" gradientTransform="matrix(-112.51 0 0 109.85 -50051.8789 95824.2422)">
			<stop offset="0" style="stop-color:#FFFFFF"/>
			<stop offset="1" style="stop-color:#000000"/>
		</linearGradient>
		<path id="ellipse4814" class="st22" d="M228.7,270.3c0,7.3,1.6,14.5,4.5,21.2c3,6.8,7.1,13.1,12.3,18.5    c5.3,5.5,11.4,10.1,18.3,13.6c6.9,3.5,14.5,5.6,22.2,6.2c7.5,0.6,15-0.5,22-3.1c6.6-2.5,12.7-6.4,17.7-11.4    c5.1-5.1,9-11.2,11.7-17.8c2.8-7,4.1-14.6,4-22.1c-0.1-7.6-1.8-15.1-4.8-22c-5.8-13.3-16.7-23.7-30.1-29.1    c-6.9-2.7-14.2-4.2-21.7-4.2c-7.4,0-14.7,1.2-21.7,3.8c-6.5,2.4-12.5,6-17.8,10.5c-5,4.4-9.1,9.8-12,15.9    C230.2,256.5,228.7,263.3,228.7,270.3L228.7,270.3z"/>
		
			<linearGradient id="path4828_1_" gradientUnits="userSpaceOnUse" x1="487.1316" y1="415.1538" x2="548.7515" y2="415.1538" gradientTransform="matrix(0.52 0 0 0.52 89.78 55.15)">
			<stop offset="0" style="stop-color:#394455"/>
			<stop offset="1" style="stop-color:#000000"/>
		</linearGradient>
		<circle id="path4828" class="st23" cx="271.5" cy="271" r="16.2"/>
		
			<linearGradient id="circle4830_1_" gradientUnits="userSpaceOnUse" x1="-70.15" y1="-853.2432" x2="-69.1506" y2="-853.2432" gradientTransform="matrix(-15.91 0 0 15.91 -6894.3301 13838.709)">
			<stop offset="0" style="stop-color:#FFFFFF"/>
			<stop offset="1" style="stop-color:#000000"/>
		</linearGradient>
		<circle id="circle4830" class="st24" cx="278.7" cy="263.6" r="8"/>
	</g>
	<g id="g4822">
		
			<linearGradient id="path4824_1_" gradientUnits="userSpaceOnUse" x1="-2166.4695" y1="1245.8312" x2="-2166.2395" y2="1245.8312" gradientTransform="matrix(-342.9 239.62 -106.36 -80.08 -609923.9375 619135.75)">
			<stop offset="0" style="stop-color:#394655"/>
			<stop offset="1" style="stop-color:#000000"/>
		</linearGradient>
		<path id="path4824" class="st25" d="M377,242.1c-0.1,6.1,1.1,12.8,3,19.6c1.9,6.9,4.3,13.9,6.8,20.7c2.2,6.4,4.8,12.6,7.6,18.7    c2.7,5.5,5.6,10,9.3,13.3c3.3,3.1,7.5,4.9,12,5.3c4.4,0.4,9.8,1.1,14.5-1c5-2.4,9.6-5.7,13.3-9.8c4.4-4.7,7.9-10.2,10.3-16.2    c2.6-6.3,4-13.1,4.2-19.9c0.2-6.7-0.8-13.3-3-19.6c-2.2-6.2-7.2-13.9-11.5-19c-4.4-5.1-9.8-9.4-15.8-12.6c-5.7-3-11.8-5-18.2-5.6    c-5.5-0.6-11.1,0-16.3,1.9c-4.7,1.7-8.7,4.8-11.6,8.8C378.7,230.8,377.1,235.9,377,242.1L377,242.1z"/>
		<path id="path4826" class="st26" d="M379.7,242.8c-0.2,6.2,0.5,12.4,2.1,18.4c1.7,6.7,3.7,13.3,6.2,19.7c2.2,6.1,4.9,12,7.9,17.8    c2.9,5.2,5.9,9.5,9.5,12.6c3.1,2.8,7.1,4.6,11.3,5c4,0.3,9,1.1,13.2-0.8c4.5-2.2,8.6-5.4,11.9-9.2c3.9-4.5,7-9.6,9.1-15.2    c2.3-5.9,3.5-12.2,3.6-18.5c0.1-6.2-0.9-12.4-3-18.2c-2.1-5.8-6.9-13.1-10.9-17.8c-4.1-4.8-9.1-8.8-14.6-11.8    c-5.2-2.8-10.8-4.7-16.7-5.4c-5-0.6-10-0.1-14.8,1.6c-4.2,1.5-7.9,4.3-10.5,7.9C381.3,233,379.8,237.8,379.7,242.8L379.7,242.8z"/>
		
			<linearGradient id="path4828-0_1_" gradientUnits="userSpaceOnUse" x1="-83.0248" y1="168.2751" x2="531.8652" y2="168.2751" gradientTransform="matrix(-2.74 0.17 0.15 2.34 -1653.34 -7.1099)">
			<stop offset="0" style="stop-color:#394455"/>
			<stop offset="1" style="stop-color:#000000"/>
		</linearGradient>
		<circle id="path4828-0" class="st27" cx="443.1" cy="258.1" r="12.4"/>
		<circle id="circle4830-3" class="st26" cx="448.1" cy="253.5" r="6.1"/>
	</g>
</g>
<g id="layer7">
	<path id="rect4659" class="st28" d="M369.5,318.9l-5.1,0.1l-3-0.1c-0.9,0-1.8,0.4-2.4,1.1c-0.6,0.7-1,1.6-1.1,2.6l-0.8,5.7L356,334   c-0.2,0.9,0,1.8,0.6,2.6c0.5,0.7,1.3,1.1,2.2,1l3,0.1l5.9-0.1c1.1,0,2.2-0.4,3-1.1c0.8-0.7,1.2-1.6,1.3-2.6l0.5-5.6l0.4-5.6   c0.1-1.9-1.4-3.5-3.3-3.6C369.6,319,369.5,319,369.5,318.9L369.5,318.9z"/>
	<path id="rect4661" class="st26" d="M368.6,320.7h-4.2l-2-0.1c-0.8,0-1.5,0.3-2,0.9c-0.5,0.6-0.9,1.3-1,2.1l-0.8,4.6l-1,4.6   c-0.2,0.7,0,1.5,0.4,2.1c0.4,0.5,1.1,0.9,1.8,0.9l2,0.1l4.7-0.1c0.9,0,1.7-0.4,2.4-0.9c0.6-0.5,1-1.3,1.1-2.1l0.6-4.6l0.5-4.6   c0.1-0.8-0.2-1.5-0.7-2.1c-0.5-0.5-1.2-0.8-1.9-0.8L368.6,320.7z"/>
	
		<linearGradient id="ellipse4650_1_" gradientUnits="userSpaceOnUse" x1="-2164.1807" y1="1245.0228" x2="-2163.9407" y2="1245.0228" gradientTransform="matrix(90.24 101.06 60.56 -6.18 120252.0156 226705.5312)">
		<stop offset="0" style="stop-color:#394655"/>
		<stop offset="1" style="stop-color:#000000"/>
	</linearGradient>
	<path id="ellipse4650" class="st29" d="M345.4,314.1c0.3,1.9,1.3,3.7,2.9,4.9c1.9,1.6,4,3,6.3,3.9c2.7,1.1,5.5,1.9,8.3,2.3   c2.9,0.4,5.8,0.5,8.8,0.1c2.7-0.3,5.3-1,7.8-1.9c2-0.7,3.9-1.7,5.6-3c1.4-1,2.5-2.3,3.3-3.8c0.7-1.4,1-3,0.7-4.6   c-0.3-1.8-1.1-3.4-2.2-4.8c-1.3-1.6-2.9-3-4.7-4c-2-1.2-4.2-2.1-6.5-2.6c-2.6-0.6-5.3-0.9-7.9-0.8c-2.9,0.1-5.7,0.5-8.5,1.3   c-2.6,0.7-5.1,1.8-7.5,3.1c-2,1.1-3.7,2.6-5,4.5C345.7,310.4,345.3,312.3,345.4,314.1L345.4,314.1z"/>
	
		<linearGradient id="ellipse4652_1_" gradientUnits="userSpaceOnUse" x1="257.9215" y1="484.1508" x2="323.1516" y2="484.1508" gradientTransform="matrix(0.52 0 0 0.52 104.8 60.98)">
		<stop offset="0" style="stop-color:#E1D0CB"/>
		<stop offset="1" style="stop-color:#000000"/>
	</linearGradient>
	<path id="ellipse4652" class="st30" d="M351.5,313.7c0.3,1.6,1.2,3,2.4,4c1.5,1.3,3.2,2.4,5,3.1c4.2,1.8,8.8,2.4,13.3,1.9   c2.1-0.3,4.1-0.8,6-1.5c1.6-0.6,3.1-1.5,4.4-2.5c1.1-0.8,1.9-1.9,2.5-3.1c0.5-1.2,0.6-2.5,0.4-3.7c-0.3-1.4-0.9-2.7-1.9-3.7   c-1.1-1.2-2.3-2.3-3.7-3.1c-1.6-0.9-3.3-1.6-5.1-2c-2-0.5-4.1-0.6-6.2-0.5c-2.2,0.1-4.4,0.5-6.5,1.1c-2,0.6-3.9,1.4-5.7,2.5   c-1.5,0.9-2.8,2.1-3.9,3.5C351.5,310.8,351.2,312.3,351.5,313.7L351.5,313.7z"/>
	
		<linearGradient id="path4648_1_" gradientUnits="userSpaceOnUse" x1="-2162.1296" y1="1243.066" x2="-2161.8896" y2="1243.066" gradientTransform="matrix(48.84 58.29 32.78 -3.56 65220.1406 130757.1094)">
		<stop offset="0" style="stop-color:#394655"/>
		<stop offset="1" style="stop-color:#000000"/>
	</linearGradient>
	<path id="path4648" class="st31" d="M359.5,304.9c0.4,1.1,1.2,2.1,2.2,2.7c1.2,0.8,2.6,1.5,4,1.9c1.5,0.5,3.1,0.8,4.7,1   c1.5,0.2,3.1,0.2,4.6,0c1.3-0.1,2.5-0.4,3.7-0.9c1-0.4,1.8-1,2.5-1.7c0.7-0.7,1.2-1.5,1.4-2.4c0.3-0.9,0.4-1.9,0.2-2.8   c-0.2-1-0.7-2-1.3-2.9c-0.7-0.9-1.6-1.7-2.7-2.3c-1.2-0.7-2.5-1.2-3.8-1.4c-1.5-0.3-3.1-0.4-4.6-0.2c-1.6,0.1-3.2,0.5-4.7,1.1   c-1.3,0.5-2.6,1.2-3.8,2.1c-1,0.7-1.7,1.7-2.3,2.8C359.3,302.8,359.2,303.9,359.5,304.9L359.5,304.9z"/>
</g>
<g id="layer12">
	<g id="g4533">
		
			<linearGradient id="ellipse4523_1_" gradientUnits="userSpaceOnUse" x1="16.4476" y1="684.4083" x2="631.3376" y2="684.4083" gradientTransform="matrix(0.35 -8.000000e-02 6.000000e-02 0.49 142.82 103.4)">
			<stop offset="0" style="stop-color:#E1D6B9"/>
			<stop offset="1" style="stop-color:#000000"/>
		</linearGradient>
		<path id="ellipse4523" class="st32" d="M264.3,407.3c-1.3,1.2-2.2,2.7-2.6,4.4c-0.2,1.4,0,2.8,0.6,4.1c0.7,1.5,1.4,2.9,2.4,4.3    c0.9,1.5,2,3,3,4.5c1,1.4,2.1,2.8,3.2,4c1,1,2.1,1.9,3.3,2.7c2.9,1.5,6.4,0.3,7.8-2.5c0.3-0.5,0.5-1.1,0.6-1.7    c0.1-1.2-0.2-2.3-0.9-3.3c-0.8-1.2-1.6-2.3-2.6-3.3c-1.2-1.3-2.2-2.6-3.2-4c-1-1.6-1.9-3.3-2.6-5.1c-0.6-1.6-1.4-3.1-2.3-4.5    c-0.6-1.1-1.6-1.8-2.8-1.9C267.1,405,265.8,405.7,264.3,407.3z"/>
		
			<linearGradient id="path4521_1_" gradientUnits="userSpaceOnUse" x1="-2165.3508" y1="1239.0653" x2="-2165.1309" y2="1239.0653" gradientTransform="matrix(-83.33 1.91 -22.51 -33.55 -152260.6719 46125.6797)">
			<stop offset="0" style="stop-color:#394655"/>
			<stop offset="1" style="stop-color:#000000"/>
		</linearGradient>
		<path id="path4521" class="st33" d="M271.5,405.7c1,1.2,1.8,2.6,2.5,4c0.9,1.9,1.9,3.7,3.1,5.5c1.2,1.8,2.5,3.3,3.6,4.7    c1.1,1.2,2,2.6,2.8,4c0.6,1.2,0.9,2.6,0.8,4c-0.2,1.5-0.9,2.9-2,3.9c-1,1.1-2.3,1.9-3.8,2.1c-1.4,0.1-2.8-0.2-4-0.8    c-1.5-0.8-2.9-1.8-4.1-3c-1.4-1.4-2.7-2.9-3.9-4.5c-1.2-1.7-2.4-3.5-3.3-5.1c-0.9-1.5-1.7-3-2.3-4.6c-0.2-0.5-0.3-1.1-0.4-1.7    c-0.2-1.1,1.6-2.8,1.6-1.6c0,1.1,0.2,2.2,0.6,3.2c0.6,1.4,1.4,2.8,2.3,4.1c0.9,1.4,1.9,2.9,2.9,4.3c0.9,1.4,2,2.7,3.1,3.9    c0.9,1,2,1.9,3.2,2.6c2,1.4,4.8,1,6.4-0.9c0.9-0.8,1.5-2,1.7-3.2c0.1-1.1-0.2-2.2-0.8-3.1c-0.7-1.1-1.6-2.2-2.5-3.2    c-1.1-1.2-2.2-2.5-3.1-3.9c-1-1.6-1.8-3.2-2.5-4.9c-0.6-1.5-1.3-3-2.2-4.4l-0.3-0.4c-0.2-0.3-0.5-0.6-0.8-0.8    c-0.3-0.2,0.5-1.7,1.2-0.8C271.3,405.5,271.4,405.6,271.5,405.7z"/>
	</g>
</g>
<g id="layer3">
	<path id="path4248" class="st34" d="M190.6,361.1c-7.3,17.1-12.2,23.3-24.2,35.9c-9.2,9.7-23.1,19.6-35.1,31.7   c-10.8,11-20.9,16.8-51.4,25.6c-9.6,2.8-35.2,5.2-41.2,29.9c37.1-24.7,97.9-18.7,134-39.7c30.4-17.6,71.5-66.8,102-70.7   C217.7,373.2,200.8,369.6,190.6,361.1z"/>
	<path id="path4265" class="st34" d="M368.8,370.8l59-4.1c0,0,1.8,0.8,2.1,1.7c5.9,16-10.2,48.7-10.2,48.7c0-2.4,10.8-35.1-4.7-42.8   C401.8,367.9,384.5,372.7,368.8,370.8L368.8,370.8z"/>
	<path id="path4280" class="st35" d="M190,362.5c-7,16.1-12,22.3-23.6,34.5c-9.2,9.7-23.1,19.6-35.1,31.7   c-10.8,11-20.9,16.8-51.4,25.6c-8.5,2.5-29.7,4.7-38.5,22.4c2.2-2.8,5.8-3.9,7.9-7c3.6-5.2,48.7-9.3,60.5-16.9   c7.8-5,26.1-14.2,35.3-20.3s40.1-31.9,48-33.3c24.8-4.5,44.8-25.5,44.8-25.5l-5.8-1.4c-21.2-1.6-31.7-4.5-38.6-9L190,362.5z"/>
	<path id="path4267" class="st36" d="M190.8,357.4c3.9,1,6.1,4.2,9.9,5.5c11.9,3.9,22.6,6.5,35,7.4c15.4,1.1,32.1,1.2,47.5,0.9   c29.3-0.5,58.8-1.5,88.1-3c16-0.8,32.5-1.8,48.4-3.2c3.1-0.2,6.4-4.8,9.3-3.7c1.9,0.8,1.6,2.6,2.1,4.6c2,4,0.1,5.3-4.5,6.1   c-15.5,2.4-31.4,2.9-47.1,3.5c-38.4,1.6-76.9,1.7-115.3,1.3c-13.6-0.1-27.3,0.4-40.8-1.3c-10.6-1.4-21.5-2.8-31.3-7   c-3.3-1.4-6.4-2.2-7.2-5.7c-0.2-1.1,1-1.7,1.5-2.6c0.5-0.8,0.2-1.8,1-2.3C188.4,357.4,189.6,357.2,190.8,357.4L190.8,357.4z"/>
	<path id="path4340" class="st37" d="M186.8,358.7c-0.1,0.6-0.3,1.1-0.5,1.7c-0.6,0.9-1.8,1.5-1.5,2.6c0.8,3.5,3.9,4.3,7.2,5.7   c9.8,4.3,20.7,5.7,31.3,7c13.5,1.7,27.2,1.2,40.8,1.3c38.4,0.4,76.9,0.4,115.3-1.3c15.7-0.7,31.5-1.1,47.1-3.5   c4.6-0.8,6.5-2.2,4.5-6.1c0-0.2-0.1-0.4-0.1-0.5c0.4,3.7-5.3,3.9-9.5,4.7c-26.9,5.3-54.8,2.8-82.2,3.3   c-34.3,0.5-74.7,5.2-108.5-0.8C216.6,370.2,195.7,364.6,186.8,358.7L186.8,358.7z"/>
</g>
<path class="st38" d="M387.6,447.5c-10.5-18.2-22.9-33.3-32.6-45.2c-8.4,17.8-20.3,32.9-30.8,44.9c11,4.5,21.5,10,31.6,16.3  C366.8,459,377.4,453.6,387.6,447.5z"/>
<path class="st38" d="M355.7,468.6c-9.9-6.7-20.4-12.5-31.4-17.3c10.8,10.6,22.2,23.9,30.7,39.4l0,0c9.6-9.7,21.6-22,32.5-37  C377.3,459.5,366.7,464.5,355.7,468.6z"/>
<path class="st39" d="M454.6,168.7L454.6,168.7z"/>
<linearGradient id="SVGID_1_" gradientUnits="userSpaceOnUse" x1="496.62" y1="389.64" x2="496.62" y2="389.64" gradientTransform="matrix(1 0 0 -1 0 562)">
	<stop offset="0" style="stop-color:#FFFFFF"/>
	<stop offset="0.14" style="stop-color:#F9FAFC"/>
	<stop offset="0.31" style="stop-color:#E9EDF5"/>
	<stop offset="0.52" style="stop-color:#CED8E9"/>
	<stop offset="0.73" style="stop-color:#A8BAD8"/>
	<stop offset="0.96" style="stop-color:#7895C2"/>
	<stop offset="1" style="stop-color:#708EBE"/>
</linearGradient>

<linearGradient id="SVGID_2_" gradientUnits="userSpaceOnUse" x1="538.19" y1="437.33" x2="455.06" y2="437.33" gradientTransform="matrix(1 0 0 -1 0 562)">
	<stop offset="0" style="stop-color:#00FFFF"/>
	<stop offset="0.16" style="stop-color:#00F9FC"/>
	<stop offset="0.36" style="stop-color:#00E9F2"/>
	<stop offset="0.6" style="stop-color:#00CEE3"/>
	<stop offset="0.85" style="stop-color:#00A9CD"/>
	<stop offset="1" style="stop-color:#008EBE"/>
</linearGradient>

<linearGradient id="SVGID_3_" gradientUnits="userSpaceOnUse" x1="496.622" y1="403.11" x2="454.61" y2="403.11" gradientTransform="matrix(1 0 0 -1 0 562)">
	<stop offset="0" style="stop-color:#00FFFF"/>
	<stop offset="0.16" style="stop-color:#00F9FC"/>
	<stop offset="0.36" style="stop-color:#00E9F2"/>
	<stop offset="0.6" style="stop-color:#00CEE3"/>
	<stop offset="0.85" style="stop-color:#00A9CD"/>
	<stop offset="1" style="stop-color:#008EBE"/>
</linearGradient>

<linearGradient id="SVGID_4_" gradientUnits="userSpaceOnUse" x1="538.63" y1="403.1" x2="496.62" y2="403.1" gradientTransform="matrix(1 0 0 -1 0 562)">
	<stop offset="0" style="stop-color:#00FFFF"/>
	<stop offset="0.16" style="stop-color:#00F9FC"/>
	<stop offset="0.36" style="stop-color:#00E9F2"/>
	<stop offset="0.6" style="stop-color:#00CEE3"/>
	<stop offset="0.85" style="stop-color:#00A9CD"/>
	<stop offset="1" style="stop-color:#008EBE"/>
</linearGradient>

<g class="st44">
	
	
</g>
<path class="st39" d="M397.5,213.7L397.5,213.7z"/>
<linearGradient id="SVGID_5_" gradientUnits="userSpaceOnUse" x1="425.97" y1="345.88" x2="425.97" y2="345.88" gradientTransform="matrix(1 0 0 -1 0 562)">
	<stop offset="0" style="stop-color:#FFFFFF"/>
	<stop offset="0.14" style="stop-color:#F9FAFC"/>
	<stop offset="0.31" style="stop-color:#E9EDF5"/>
	<stop offset="0.52" style="stop-color:#CED8E9"/>
	<stop offset="0.73" style="stop-color:#A8BAD8"/>
	<stop offset="0.96" style="stop-color:#7895C2"/>
	<stop offset="1" style="stop-color:#708EBE"/>
</linearGradient>

<linearGradient id="SVGID_6_" gradientUnits="userSpaceOnUse" x1="454.19" y1="378.2397" x2="397.8" y2="378.2397" gradientTransform="matrix(1 0 0 -1 0 562)">
	<stop offset="0" style="stop-color:#00FFFF"/>
	<stop offset="0.16" style="stop-color:#00F9FC"/>
	<stop offset="0.36" style="stop-color:#00E9F2"/>
	<stop offset="0.6" style="stop-color:#00CEE3"/>
	<stop offset="0.85" style="stop-color:#00A9CD"/>
	<stop offset="1" style="stop-color:#008EBE"/>
</linearGradient>









<linearGradient id="SVGID_10_" gradientUnits="userSpaceOnUse" x1="475.1551" y1="456.5339" x2="429.9639" y2="456.5339" gradientTransform="matrix(0.9333 0.359 0.359 -0.9333 -170.173 380.0575)">
	<stop offset="0" style="stop-color:#00FFFF"/>
	<stop offset="0.16" style="stop-color:#00F9FC"/>
	<stop offset="0.36" style="stop-color:#00E9F2"/>
	<stop offset="0.6" style="stop-color:#00CEE3"/>
	<stop offset="0.85" style="stop-color:#00A9CD"/>
	<stop offset="1" style="stop-color:#008EBE"/>
</linearGradient>

<linearGradient id="SVGID_11_" gradientUnits="userSpaceOnUse" x1="452.5406" y1="437.9067" x2="429.6906" y2="437.9067" gradientTransform="matrix(0.9333 0.359 0.359 -0.9333 -170.173 380.0575)">
	<stop offset="0" style="stop-color:#00FFFF"/>
	<stop offset="0.16" style="stop-color:#00F9FC"/>
	<stop offset="0.36" style="stop-color:#00E9F2"/>
	<stop offset="0.6" style="stop-color:#00CEE3"/>
	<stop offset="0.85" style="stop-color:#00A9CD"/>
	<stop offset="1" style="stop-color:#008EBE"/>
</linearGradient>

<linearGradient id="SVGID_12_" gradientUnits="userSpaceOnUse" x1="475.3888" y1="437.9066" x2="452.5488" y2="437.9066" gradientTransform="matrix(0.9333 0.359 0.359 -0.9333 -170.173 380.0575)">
	<stop offset="0" style="stop-color:#00FFFF"/>
	<stop offset="0.16" style="stop-color:#00F9FC"/>
	<stop offset="0.36" style="stop-color:#00E9F2"/>
	<stop offset="0.6" style="stop-color:#00CEE3"/>
	<stop offset="0.85" style="stop-color:#00A9CD"/>
	<stop offset="1" style="stop-color:#008EBE"/>
</linearGradient>

<g class="st44">
	
	
</g>
</svg>